# xmcd CD database file
#
# Track frame offsets:
#	150
#	16087
#	33275
#	49262
#	62612
#	77487
#	94300
#	108812
#	123937
#	139612
#	153687
#	169775
#	185762
#	203175
#	221100
#	238150
#	253462
#	270887
#	287862
#	303450
#
# Disc length: 4230 seconds
#
# Revision: 2
# Processed by: cddbd v1.4b41PL1 Copyright (c) Steve Scherf et al.
# Submitted via: Feurio! 1.51.7ß - http://www.feurio.com
#
DISCID=20108414
DTITLE=Various Artist - Dance Now 2000/2 CD 2
DYEAR=1900
DGENRE=
TTITLE0=Lexy and K-Paul - Freak
TTITLE1=Phats and Small - Harvest
TTITLE2=Gigi D´agostino - Another Way
TTITLE3=Hypertraxx - See The Day
TTITLE4=Warp Brothers - Phatt Bass
TTITLE5=Marc Et Claude - I Need Your Lovin´
TTITLE6=Bob Sinclar - I Feel For You
TTITLE7=Rumble Rokkaz - No Coke
TTITLE8=Love Connection - The Bomb
TTITLE9=Dos Sombreros - Vacaciones
TTITLE10=Girl Thing - Last One Standing
TTITLE11=Victoria Faiella - Daylight
TTITLE12=Negrocan - Cada Vez
TTITLE13=Artful Dodger and Robbie Craig - Woman Trouble
TTITLE14=Chicane - No Ordinary Morning
TTITLE15=Tamy - High On Your Love
TTITLE16=Aqua - Bumble Bee
TTITLE17=Scooter - She´s The Sun
TTITLE18=Beam vs. Cyrus - Thunder In Paradise
TTITLE19=Prezisio feat. Marvin - Voices
EXTD=
EXTT0=
EXTT1=
EXTT2=
EXTT3=
EXTT4=
EXTT5=
EXTT6=
EXTT7=
EXTT8=
EXTT9=
EXTT10=
EXTT11=
EXTT12=
EXTT13=
EXTT14=
EXTT15=
EXTT16=
EXTT17=
EXTT18=
EXTT19=
PLAYORDER=
